<?xml version="1.0" encoding="UTF-8"?><svg id="Layer_2" xmlns="http://www.w3.org/2000/svg" viewBox="0 0 1500 251.75"><defs><style>.cls-1{fill:#05082b;}.cls-2{fill:#11ae00;}</style></defs><g id="Layer_1-2"><g><g><ellipse class="cls-2" cx="77.96" cy="78.07" rx="77.96" ry="78.07"/><ellipse class="cls-1" cx="78.17" cy="209.04" rx="77.96" ry="21.68"/></g><path class="cls-1" d="M1466.46,192.86c0,4.66,2.94,6.87,8.09,6.38l23.31-2.7c2.45-.25,2.7-1.96,1.23-4.17-2.45-3.68-5.4-11.53-5.4-23.8V41.5c0-4.66-2.94-6.87-8.09-6.38l-23.31,2.7c-2.45,.25-2.7,1.96-1.22,4.17,2.45,3.68,5.4,11.53,5.4,23.8v28.46h-1.23c-6.87-9.08-18.4-14.47-31.16-14.47-31.89,0-55.19,26.5-55.19,62.56s22.82,60.1,50.04,60.1c15.45,0,27.97-6.87,36.31-20.12h1.23v10.55h0Zm-28.95-10.55c-18.15,0-30.42-16.19-30.42-41.7s12.51-43.42,31.65-43.42c17.17,0,27.72,14.47,27.72,36.31v15.94c0,19.14-12.76,32.87-28.95,32.87Zm-137.38,16.92h33.36c2.45,0,2.7-1.96,1.23-4.17-1.96-2.94-4.17-10.06-4.17-23.8v-21.1c0-30.91,16.68-43.17,32.87-43.17,2.94,0,5.15,0,7.6,.49,2.21,.49,3.43-.25,3.43-2.45v-21.34c0-2.21-.98-3.43-2.94-3.68-1.72-.25-3.68-.25-5.89-.25-17.17,0-28.21,11.53-34.1,32.87h-.98v-23.55c0-4.66-2.94-6.87-8.09-6.38l-23.55,2.7c-2.45,.25-2.7,1.96-1.23,4.17,2.45,3.68,5.39,11.53,5.39,23.8v57.9c0,13.74-2.21,20.85-4.17,23.8-1.47,2.21-1.23,4.17,1.22,4.17Zm-87.57,3.19c14.96,0,27.97-7.36,35.57-20.12h1.22v10.55c0,4.66,2.94,6.87,8.09,6.38l23.55-2.7c2.45-.25,2.7-1.96,1.23-4.17-2.45-3.68-5.4-11.53-5.4-23.8V82.96h-18.65l-5.4,13.49h-1.22c-7.36-10.3-19.87-16.68-34.35-16.68-30.67,0-54.46,26.5-54.46,62.56s24.29,60.1,49.8,60.1h0Zm8.58-20.12c-18.15,0-29.93-16.92-29.93-42.44s12.51-42.68,30.91-42.68c15.94,0,27.23,13.49,27.23,36.31v15.7c0,19.63-13,33.12-28.21,33.12Zm-131.25,1.47c-18.89,0-30.42-16.43-30.42-42.93s11.77-42.44,30.42-42.44,30.67,15.7,30.67,42.44-12.02,42.93-30.67,42.93Zm0,18.65c34.34,0,59.86-25.51,59.86-61.58s-25.52-61.09-59.86-61.09-59.86,25.27-59.86,61.09,25.51,61.58,59.86,61.58Zm-126.09,0c30.67,0,54.95-25.51,54.95-62.8s-22.82-59.86-50.53-59.86c-15.21,0-27.72,7.36-35.82,20.12h-1.23V41.5c0-4.66-2.94-6.87-8.09-6.38l-23.31,2.7c-2.45,.25-2.7,1.96-1.23,4.17,2.45,3.68,5.4,11.53,5.4,23.8V199.25h18.65l4.91-13.74h1.23c7.6,10.55,20.61,16.92,35.08,16.92h0Zm-4.66-17.42c-17.41,0-27.97-14.23-27.97-37.04v-14.96c0-18.89,12.26-33.12,28.95-33.12,18.39,0,30.42,16.43,30.42,41.7s-12.02,43.42-31.4,43.42Zm-133.94-40.48c-13,0-21.59-9.08-21.59-24.29s8.58-25.02,21.59-25.02,21.59,9.57,21.59,25.02-8.58,24.29-21.59,24.29Zm-177.86,54.7h33.12c2.45,0,2.7-1.96,1.23-4.17-1.96-2.94-4.17-10.06-4.17-23.8v-39.5c0-20.85,13.25-31.65,27.72-31.65,13,0,20.61,8.58,20.61,25.51v45.63c0,13.74-2.21,20.85-4.17,23.8-1.47,2.21-1.23,4.17,1.23,4.17h33.36c2.45,0,2.7-1.96,1.23-4.17-1.96-2.94-4.17-10.06-4.17-23.8v-46.36c0-29.68-16.19-45.14-39.01-45.14-16.19,0-27.72,7.11-35.57,20.12h-1.23v-10.79c0-4.66-2.94-6.87-8.09-6.38l-23.31,2.7c-2.45,.25-2.7,1.96-1.23,4.17,2.45,3.68,5.4,11.53,5.4,23.8v57.9c0,13.74-2.21,20.85-4.17,23.8-1.47,2.21-1.23,4.17,1.23,4.17h0Zm-39.5-130.52c9.81,0,17.42-7.6,17.42-17.17s-7.6-16.43-17.42-16.43-17.9,7.11-17.9,16.43,7.85,17.17,17.9,17.17Zm-16.92,130.51h33.12c2.45,0,2.7-1.96,1.23-4.17-1.96-2.94-4.17-10.06-4.17-23.8V89.1c0-4.66-2.94-6.87-8.09-6.38l-23.31,2.7c-2.45,.25-2.7,1.96-1.23,4.17,2.45,3.68,5.4,11.53,5.4,23.8v57.9c0,13.74-2.21,20.85-4.17,23.8-1.47,2.21-1.23,4.17,1.23,4.17h0Zm-88.56-.01h33.36c2.45,0,2.7-1.96,1.23-4.17-1.96-2.94-4.17-10.06-4.17-23.8v-21.1c0-30.91,16.68-43.17,32.87-43.17,2.94,0,5.15,0,7.6,.49,2.21,.49,3.43-.25,3.43-2.45v-21.34c0-2.21-.98-3.43-2.94-3.68-1.72-.25-3.68-.25-5.89-.25-17.17,0-28.21,11.53-34.1,32.87h-.98v-23.55c0-4.66-2.94-6.87-8.09-6.38l-23.55,2.7c-2.45,.25-2.7,1.96-1.23,4.17,2.45,3.68,5.4,11.53,5.4,23.8v57.9c0,13.74-2.21,20.85-4.17,23.8-1.47,2.21-1.23,4.17,1.22,4.17Zm-78.5-14.23c-16.92,0-27.97-13.49-27.97-37.29v-14.72c0-19.63,13-33.12,28.95-33.12,18.65,0,30.42,16.43,30.42,41.7s-12.26,43.42-31.4,43.42Zm-58.14,63.29h33.12c2.45,0,2.7-1.96,1.23-4.17-1.96-2.94-4.17-10.06-4.17-23.8v-32.38h1.23c7.36,9.57,18.89,14.47,31.16,14.47,29.68,0,55.19-24.04,55.19-63.05,0-36.55-23.06-59.61-50.04-59.61-16.19,0-28.21,7.36-36.31,20.12h-1.23v-10.79c0-4.66-2.94-6.87-8.09-6.38l-23.31,2.7c-2.45,.25-2.7,1.96-1.23,4.17,2.45,3.68,5.4,11.53,5.4,23.8v106.96c0,13.74-2.21,20.85-4.17,23.8-1.47,2.21-1.23,4.17,1.23,4.17Zm-78.99-45.87c38.51,0,62.56-17.66,62.56-47.59,0-21.84-16.19-40.72-40.97-49.8l-23.31-8.58c-15.21-5.64-20.61-12.75-20.61-23.55,0-13.25,12.75-22.57,30.42-22.57,19.38,0,34.84,8.58,40.23,22.08,.74,1.72,3.43,1.23,3.43-.74v-29.69c-9.81-6.62-23.79-11.53-43.17-11.53-36.8,0-59.86,18.65-59.86,46.36,0,21.59,12.02,37.29,33.61,45.87l22.08,8.83c21.84,8.83,28.95,15.94,28.95,29.19s-13,21.59-31.89,21.59c-24.04,0-43.42-11.28-50.53-28.95-.74-1.72-3.43-1.23-3.43,.74v31.65c9.81,9.08,30.67,16.68,52.5,16.68h0Zm534.79,49.31c39.49,0,66.73-17.9,66.73-42.93,0-19.38-15.94-29.93-43.66-29.93h-35.33c-9.08,0-13.98-3.68-13.98-9.32,0-5.15,3.92-9.57,10.3-12.51,5.89,2.21,12.51,3.19,19.87,3.19,28.21,0,46.85-17.17,46.85-39.99,0-8.58-3.92-15.7-8.58-19.63v-1.23l22.08,.25c2.21,0,3.93-1.72,3.93-4.42v-13.74c0-2.45-1.47-3.43-3.93-3.19l-41.46,4.41c-6.38-1.96-12.75-2.94-19.14-2.94-28.21,0-47.83,15.94-47.83,40.48,0,12.51,5.64,23.06,15.21,30.17v.49c-13.49,7.11-19.14,17.17-19.14,26.5,0,19.38,19.14,24.29,28.46,24.29h40.48c13,0,19.38,3.92,19.38,13,0,13.49-18.65,20.85-39.25,20.85s-27.48-7.6-31.65-19.14c-1.96-5.64-6.13-8.58-11.28-8.58-6.38,0-12.02,4.42-12.02,13.25,0,17.17,19.63,30.67,53.97,30.67h0Z"/></g></g></svg>